<svg width="257" height="161" viewBox="0 0 257 161" fill="none" xmlns="http://www.w3.org/2000/svg">
<g id="jumplistitem 1" clip-path="url(#clip0_362_17)">
<g id="layer1">
<path id="selected+hover-center" d="M182.991 15.9965H115.004V75.9921H182.991V15.9965Z" fill="#AADFF4" fill-opacity="0.733333"/>
<g id="selected+hover-left">
<path id="rect7058" d="M115.014 15.9989H110.031V75.9965H115.014V15.9989Z" fill="#AADFF4" fill-opacity="0.733333"/>
<path id="rect7060" d="M111.004 15.9989H110.008V75.9965H111.004V15.9989Z" fill="#6FA4D7"/>
<path id="rect7062" d="M112.004 15.9989H111.008V75.9965H112.004V15.9989Z" fill="#CDECF7"/>
</g>
<g id="selected+hover-topleft">
<g id="g7066">
<path id="rect7068" d="M115.004 13.0049V12.0049H112.476V13.0049H115.004Z" fill="#CDECF7"/>
<path id="rect7070" d="M115.004 12.0074V11.0049H112.476V12.0074H115.004Z" fill="#6FA4D7"/>
</g>
<g id="g7072">
<path id="path7074" d="M112.547 11.5109C110.477 11.4898 110.485 11.4941 110.514 13.5061" stroke="#6FA4D7"/>
<path id="path7076" d="M112.541 12.5052L111.508 12.5007V13.5005" stroke="#CDECF7"/>
</g>
<g id="g7078">
<path id="rect7080" d="M112.01 13.0018H111.01V16.0019H112.01V13.0018Z" fill="#CDECF7"/>
<path id="rect7082" d="M111.013 13.0018H110.01V16.0019H111.013V13.0018Z" fill="#6FA4D7"/>
</g>
<path id="rect7084" d="M115.004 16.0049H112.012V13.0049H115.004V16.0049Z" fill="#AADFF4" fill-opacity="0.733333"/>
</g>
<g id="selected+hover-bottomleft">
<g id="g7088">
<path id="rect7091" d="M115.004 78.9933V79.9933H112.476V78.9933H115.004Z" fill="#CDECF7"/>
<path id="rect7093" d="M115.004 79.9908V80.9933H112.476V79.9908H115.004Z" fill="#6FA4D7"/>
</g>
<g id="g7095">
<path id="path7097" d="M112.547 80.4872C110.477 80.5084 110.485 80.5041 110.514 78.4921" stroke="#6FA4D7"/>
<path id="path7099" d="M112.541 79.4929L111.508 79.4975V78.4977" stroke="#CDECF7"/>
</g>
<g id="g7101">
<path id="rect7103" d="M112.01 78.9963H111.01V75.9963H112.01V78.9963Z" fill="#CDECF7"/>
<path id="rect7105" d="M111.013 78.9963H110.01V75.9963H111.013V78.9963Z" fill="#6FA4D7"/>
</g>
<path id="rect7107" d="M115.004 75.9933H112.012V78.9933H115.004V75.9933Z" fill="#AADFF4" fill-opacity="0.733333"/>
</g>
<g id="selected+hover-topright">
<g id="g7111">
<path id="rect7113" d="M183.004 13.0049V12.0049H185.533V13.0049H183.004Z" fill="#CDECF7"/>
<path id="rect7115" d="M183.004 12.0074V11.0049H185.533V12.0074H183.004Z" fill="#6FA4D7"/>
</g>
<g id="g7117">
<path id="path7119" d="M185.461 11.5109C187.531 11.4898 187.524 11.4941 187.494 13.5061" stroke="#6FA4D7"/>
<path id="path7121" d="M185.467 12.5052L186.5 12.5007V13.5005" stroke="#CDECF7"/>
</g>
<g id="g7123">
<path id="rect7125" d="M185.998 13.0018H186.998V16.0019H185.998V13.0018Z" fill="#CDECF7"/>
<path id="rect7127" d="M186.996 13.0018H187.998V16.0019H186.996V13.0018Z" fill="#6FA4D7"/>
</g>
<path id="rect7129" d="M183.004 16.0049H185.996V13.0049H183.004V16.0049Z" fill="#AADFF4" fill-opacity="0.733333"/>
</g>
<g id="selected+hover-top">
<path id="rect7133" d="M183.004 16.0059V11.0234H115.005V16.0059H183.004Z" fill="#AADFF4" fill-opacity="0.733333"/>
<path id="rect7135" d="M183.004 11.9965V11H115.005V11.9965H183.004Z" fill="#6FA4D7"/>
<path id="rect7137" d="M183.004 12.9965V11.9999H115.005V12.9965H183.004Z" fill="#CDECF7"/>
</g>
<g id="selected+hover-bottom">
<path id="rect7141" d="M183.004 75.9905V80.973H115.005V75.9905H183.004Z" fill="#AADFF4" fill-opacity="0.733333"/>
<path id="rect7143" d="M183.004 80V80.9965H115.005V80H183.004Z" fill="#6FA4D7"/>
<path id="rect7145" d="M183.004 79V79.9966H115.005V79H183.004Z" fill="#CDECF7"/>
</g>
<g id="selected+hover-right">
<path id="rect7149" d="M182.997 15.9989H187.98V75.9965H182.997V15.9989Z" fill="#AADFF4" fill-opacity="0.733333"/>
<path id="rect7151" d="M187.007 15.9989H188.003V75.9965H187.007V15.9989Z" fill="#6FA4D7"/>
<path id="rect7153" d="M186.007 15.9989H187.003V75.9965H186.007V15.9989Z" fill="#CDECF7"/>
</g>
<g id="selected+hover-bottomright">
<g id="g7157">
<path id="rect7159" d="M183.012 78.9933V79.9933H185.54V78.9933H183.012Z" fill="#CDECF7"/>
<path id="rect7161" d="M183.012 79.9908V80.9933H185.54V79.9908H183.012Z" fill="#6FA4D7"/>
</g>
<g id="g7163">
<path id="path7165" d="M185.469 80.4872C187.539 80.5084 187.531 80.5041 187.502 78.4921" stroke="#6FA4D7"/>
<path id="path7167" d="M185.475 79.4929L186.508 79.4975V78.4977" stroke="#CDECF7"/>
</g>
<g id="g7169">
<path id="rect7171" d="M186.006 78.9963H187.006V75.9963H186.006V78.9963Z" fill="#CDECF7"/>
<path id="rect7173" d="M187.003 78.9963H188.006V75.9963H187.003V78.9963Z" fill="#6FA4D7"/>
</g>
<path id="rect7175" d="M183.012 75.9933H186.004V78.9933H183.012V75.9933Z" fill="#AADFF4" fill-opacity="0.733333"/>
</g>
<g id="g18">
<g id="hover-topright">
<path id="path34787" d="M55 25V26H56C57.662 26 59 27.338 59 29V30H60V29C60 26.784 58.216 25 56 25H55Z" fill="#6FD1FD" fill-opacity="0.701961"/>
<path id="path34789" d="M55 26V27H56C57.108 27 58 27.892 58 29V30H59V29C59 27.338 57.662 26 56 26H55Z" fill="#EDF9FF" fill-opacity="0.698"/>
<path id="path34791" d="M55 27V30H58V29C58 27.892 57.108 27 56 27H55Z" fill="#E0F4FE" fill-opacity="0.7"/>
</g>
<g id="hover-bottomright">
<path id="path34795" d="M58 60H55V63H56C57.108 63 58 62.108 58 61V60Z" fill="#ACE0F9" fill-opacity="0.7"/>
<path id="path34797" d="M60 60H59V61C59 62.662 57.662 64 56 64H55V65H56C58.216 65 60 63.216 60 61V60Z" fill="#6FD1FD" fill-opacity="0.701961"/>
<path id="path34799" d="M59 60H58V61C58 62.108 57.108 63 56 63H55V64H56C57.662 64 59 62.662 59 61V60Z" fill="#EDF9FF" fill-opacity="0.698"/>
</g>
<g id="hover-bottomleft">
<path id="path34803" d="M22 60H25V63H24C22.892 63 22 62.108 22 61V60Z" fill="#ACE0F9" fill-opacity="0.7"/>
<path id="path34805" d="M20 60H21V61C21 62.662 22.338 64 24 64H25V65H24C21.784 65 20 63.216 20 61V60Z" fill="#6FD1FD" fill-opacity="0.701961"/>
<path id="path34807" d="M21 60H22V61C22 62.108 22.892 63 24 63H25V64H24C22.338 64 21 62.662 21 61V60Z" fill="#EDF9FF" fill-opacity="0.698"/>
</g>
<g id="hover-topleft">
<path id="path34811" d="M20 30H21V29C21 27.338 22.338 26 24 26H25V25H24C21.784 25 20 26.784 20 29V30Z" fill="#6FD1FD" fill-opacity="0.701961"/>
<path id="path34813" d="M21 30H22V29C22 27.892 22.892 27 24 27H25V26H24C22.338 26 21 27.338 21 29V30Z" fill="#EDF9FF" fill-opacity="0.698"/>
<path id="path34815" d="M22 30H25V27H24C22.892 27 22 27.892 22 29V30Z" fill="#E0F4FE" fill-opacity="0.7"/>
</g>
<g id="hover-top">
<path id="path34819" d="M25 26H55V27H25V26Z" fill="#EBF4FD" fill-opacity="0.698"/>
<path id="path34821" d="M25 25H55V26H25V25Z" fill="#6FD1FD" fill-opacity="0.701961"/>
<path id="path34823" d="M25 27H55V30H25V27Z" fill="#E0F4FE" fill-opacity="0.7"/>
</g>
<g id="hover-bottom">
<path id="path34827" d="M25 63H55V60H25V63Z" fill="#ACE0F9" fill-opacity="0.7"/>
<path id="path34829" d="M25 64H55V63H25V64Z" fill="#EDF9FF" fill-opacity="0.698"/>
<path id="path34831" d="M25 65H55V64H25V65Z" fill="#6FD1FD" fill-opacity="0.701961"/>
</g>
<g id="hover-right">
<path id="path34835" d="M59 30V60H58V30H59Z" fill="#EDF9FF" fill-opacity="0.698039"/>
<path id="path34837" d="M60 30V60H59V30H60Z" fill="#6FD1FD" fill-opacity="0.701961"/>
<path id="path34839" d="M58 30V60H55V30H58Z" fill="url(#paint0_linear_362_17)"/>
</g>
<g id="hover-left">
<path id="path34843" d="M21 30V60H22V30H21Z" fill="#EDF9FF" fill-opacity="0.698039"/>
<path id="path34845" d="M20 30V60H21V30H20Z" fill="#6FD1FD" fill-opacity="0.701961"/>
<path id="path34847" d="M22 30V60H25V30H22Z" fill="url(#paint1_linear_362_17)"/>
</g>
<g id="hover-center">
<path id="path34851" d="M25 30H55V60H25V30Z" fill="url(#paint2_linear_362_17)"/>
</g>
</g>
</g>
</g>
<defs>
<linearGradient id="paint0_linear_362_17" x1="56.4991" y1="30.2955" x2="56.4991" y2="59.4428" gradientUnits="userSpaceOnUse">
<stop stop-color="#E0F4FE" stop-opacity="0.701961"/>
<stop offset="1" stop-color="#ACE0F9" stop-opacity="0.701961"/>
</linearGradient>
<linearGradient id="paint1_linear_362_17" x1="23.3683" y1="30.0286" x2="23.3683" y2="59.9696" gradientUnits="userSpaceOnUse">
<stop stop-color="#E0F4FE" stop-opacity="0.701961"/>
<stop offset="1" stop-color="#ACE0F9" stop-opacity="0.701961"/>
</linearGradient>
<linearGradient id="paint2_linear_362_17" x1="39.8683" y1="27.0623" x2="39.8683" y2="62.955" gradientUnits="userSpaceOnUse">
<stop stop-color="#E0F4FE" stop-opacity="0.701961"/>
<stop offset="1" stop-color="#ACE0F9" stop-opacity="0.701961"/>
</linearGradient>
<clipPath id="clip0_362_17">
<rect width="257" height="161" fill="white"/>
</clipPath>
</defs>
</svg>
