<?xml version="1.0" encoding="UTF-8" standalone="no"?>
<svg
   width="78"
   height="48"
   viewBox="0 0 78 48"
   fill="none"
   version="1.1"
   id="svg62"
   sodipodi:docname="media-icons.svg"
   inkscape:version="1.4 (e7c3feb100, 2024-10-09)"
   xmlns:inkscape="http://www.inkscape.org/namespaces/inkscape"
   xmlns:sodipodi="http://sodipodi.sourceforge.net/DTD/sodipodi-0.dtd"
   xmlns="http://www.w3.org/2000/svg"
   xmlns:svg="http://www.w3.org/2000/svg">
  <sodipodi:namedview
     id="namedview62"
     pagecolor="#ffffff"
     bordercolor="#000000"
     borderopacity="0.25"
     inkscape:showpageshadow="2"
     inkscape:pageopacity="0.0"
     inkscape:pagecheckerboard="0"
     inkscape:deskcolor="#d1d1d1"
     inkscape:zoom="4.7307692"
     inkscape:cx="39"
     inkscape:cy="23.99187"
     inkscape:window-width="1366"
     inkscape:window-height="755"
     inkscape:window-x="0"
     inkscape:window-y="0"
     inkscape:window-maximized="1"
     inkscape:current-layer="svg62" />
  <g
     id="skip">
    <g
       id="Vector 18">
      <mask
         id="path-1-outside-1_50_7"
         maskUnits="userSpaceOnUse"
         x="59"
         y="7"
         width="8"
         height="11"
         fill="black">
        <rect
           fill="white"
           x="59"
           y="7"
           width="8"
           height="11"
           id="rect1" />
        <path
           d="M65.8933 12.58L60.16 16.88C60.0941 16.9294 60 16.8824 60 16.8V8.2C60 8.1176 60.0941 8.07056 60.16 8.12L65.8933 12.42C65.9467 12.46 65.9467 12.54 65.8933 12.58Z"
           id="path1" />
      </mask>
      <path
         d="M65.8933 12.58L60.16 16.88C60.0941 16.9294 60 16.8824 60 16.8V8.2C60 8.1176 60.0941 8.07056 60.16 8.12L65.8933 12.42C65.9467 12.46 65.9467 12.54 65.8933 12.58Z"
         fill="url(#paint0_linear_50_7)"
         id="path2" />
      <path
         d="M65.8933 12.58L60.16 16.88C60.0941 16.9294 60 16.8824 60 16.8V8.2C60 8.1176 60.0941 8.07056 60.16 8.12L65.8933 12.42C65.9467 12.46 65.9467 12.54 65.8933 12.58Z"
         stroke="#515464"
         stroke-width="2"
         mask="url(#path-1-outside-1_50_7)"
         id="path3" />
    </g>
    <rect
       id="Rectangle 57"
       x="68.5"
       y="7.5"
       width="3"
       height="10"
       rx="0.6"
       fill="url(#paint1_linear_50_7)"
       stroke="#515464" />
  </g>
  <g
     id="play">
    <mask
       id="path-3-outside-2_50_7"
       maskUnits="userSpaceOnUse"
       x="33"
       y="4"
       width="14"
       height="15"
       fill="black">
      <rect
         fill="white"
         x="33"
         y="4"
         width="14"
         height="15"
         id="rect3" />
      <path
         d="M45.8377 11.5879L34.1476 17.92C34.081 17.9561 34 17.9079 34 17.8321V5.16789C34 5.09212 34.081 5.04387 34.1476 5.07997L45.8377 11.4121C45.9075 11.4499 45.9075 11.5501 45.8377 11.5879Z"
         id="path4" />
    </mask>
    <path
       d="M45.8377 11.5879L34.1476 17.92C34.081 17.9561 34 17.9079 34 17.8321V5.16789C34 5.09212 34.081 5.04387 34.1476 5.07997L45.8377 11.4121C45.9075 11.4499 45.9075 11.5501 45.8377 11.5879Z"
       fill="url(#paint2_linear_50_7)"
       id="path5" />
    <path
       d="M45.8377 11.5879L34.1476 17.92C34.081 17.9561 34 17.9079 34 17.8321V5.16789C34 5.09212 34.081 5.04387 34.1476 5.07997L45.8377 11.4121C45.9075 11.4499 45.9075 11.5501 45.8377 11.5879Z"
       stroke="#515464"
       stroke-width="2"
       mask="url(#path-3-outside-2_50_7)"
       id="path6" />
  </g>
  <g
     id="previous">
    <g
       id="Vector 18_2">
      <mask
         id="path-4-outside-3_50_7"
         maskUnits="userSpaceOnUse"
         x="12"
         y="7"
         width="8"
         height="11"
         fill="black">
        <rect
           fill="white"
           x="12"
           y="7"
           width="8"
           height="11"
           id="rect6" />
        <path
           d="M13.1067 12.58L18.84 16.88C18.9059 16.9294 19 16.8824 19 16.8V8.2C19 8.1176 18.9059 8.07056 18.84 8.12L13.1067 12.42C13.0533 12.46 13.0533 12.54 13.1067 12.58Z"
           id="path7" />
      </mask>
      <path
         d="M13.1067 12.58L18.84 16.88C18.9059 16.9294 19 16.8824 19 16.8V8.2C19 8.1176 18.9059 8.07056 18.84 8.12L13.1067 12.42C13.0533 12.46 13.0533 12.54 13.1067 12.58Z"
         fill="url(#paint3_linear_50_7)"
         id="path8" />
      <path
         d="M13.1067 12.58L18.84 16.88C18.9059 16.9294 19 16.8824 19 16.8V8.2C19 8.1176 18.9059 8.07056 18.84 8.12L13.1067 12.42C13.0533 12.46 13.0533 12.54 13.1067 12.58Z"
         stroke="#515464"
         stroke-width="2"
         mask="url(#path-4-outside-3_50_7)"
         id="path9" />
    </g>
    <rect
       id="Rectangle 57_2"
       x="0.5"
       y="-0.5"
       width="3"
       height="10"
       rx="0.6"
       transform="matrix(-1 0 0 1 11 8)"
       fill="url(#paint4_linear_50_7)"
       stroke="#515464" />
  </g>
  <g
     id="mute"
     transform="matrix(1,0,0,1.0172052,0,-0.46660858)"
     style="stroke-width:0.991507">
    <path
       id="Vector 20"
       d="m 14,32 c 1.5,0 1.5,2 1.5,2 v 0 c 0,0 0,2 -1.5,2"
       stroke="#515464"
       style="stroke-width:0.991507" />
    <path
       id="Vector 23"
       d="m 14,33 c 0.5,0 0.5,1 0.5,1 v 0 c 0,0 0,1 -0.5,1"
       stroke="#ffffff"
       style="stroke-width:0.982491" />
    <path
       id="Vector 21"
       d="m 16,30 c 2.5,0 2.5,4 2.5,4 v 0 c 0,0 0,4 -2.5,4"
       stroke="#515464"
       style="stroke-width:0.991507" />
    <path
       id="Vector 24"
       d="m 16,31 c 1.5,0 1.5,3 1.5,3 v 0 c 0,0 0,3 -1.5,3"
       stroke="#ffffff"
       style="stroke-width:0.982491" />
    <path
       id="Vector 22"
       d="m 19,28.4999 c 3,0 3,5.5001 3,5.5001 v 0 c 0,0 0,5.4999 -3,5.4999"
       stroke="#515464"
       style="stroke-width:0.991507" />
    <path
       id="Vector 25"
       d="m 19,29.5 c 2,0 2,4.5 2,4.5 v 0 c 0,0 0,4.5 -2,4.5"
       stroke="#ffffff"
       style="stroke-width:0.982491" />
    <g
       id="Vector 19"
       style="stroke-width:0.991507">
      <mask
         id="path-12-outside-4_50_7"
         maskUnits="userSpaceOnUse"
         x="8"
         y="26"
         width="6"
         height="16"
         fill="#000000">
        <rect
           fill="#ffffff"
           x="8"
           y="26"
           width="6"
           height="16"
           id="rect9" />
        <path
           d="m 9.03415,30.4701 3.79995,-3.325 C 12.8988,27.0885 13,27.1345 13,27.2204 v 13.5592 c 0,0.0859 -0.1012,0.1319 -0.1659,0.0753 L 9.03415,37.5299 C 9.01245,37.5109 9,37.4835 9,37.4546 v -6.9092 c 0,-0.0289 0.01245,-0.0563 0.03415,-0.0753 z"
           id="path10" />
      </mask>
      <path
         d="m 9.03415,30.4701 3.79995,-3.325 C 12.8988,27.0885 13,27.1345 13,27.2204 v 13.5592 c 0,0.0859 -0.1012,0.1319 -0.1659,0.0753 L 9.03415,37.5299 C 9.01245,37.5109 9,37.4835 9,37.4546 v -6.9092 c 0,-0.0289 0.01245,-0.0563 0.03415,-0.0753 z"
         fill="url(#paint5_linear_50_7)"
         id="path11"
         style="fill:url(#paint5_linear_50_7);stroke-width:0.991507" />
      <path
         d="m 9.03415,30.4701 3.79995,-3.325 C 12.8988,27.0885 13,27.1345 13,27.2204 v 13.5592 c 0,0.0859 -0.1012,0.1319 -0.1659,0.0753 L 9.03415,37.5299 C 9.01245,37.5109 9,37.4835 9,37.4546 v -6.9092 c 0,-0.0289 0.01245,-0.0563 0.03415,-0.0753 z"
         stroke="#515464"
         stroke-width="1.98302"
         mask="url(#path-12-outside-4_50_7)"
         id="path12" />
    </g>
    <path
       id="Rectangle 58"
       d="M 8.5,31 V 30.5 H 8 7.1 c -0.33137,0 -0.6,0.2686 -0.6,0.6 v 5.8 c 0,0.3314 0.26863,0.6 0.6,0.6 H 8 8.5 V 37 Z"
       fill="url(#paint6_linear_50_7)"
       stroke="#515464"
       style="fill:url(#paint6_linear_50_7);stroke-width:0.991507" />
  </g>
  <g
     id="unmute"
     transform="matrix(1,0,0,1.0184355,0,-0.49997368)"
     style="stroke-width:0.990908">
    <circle
       id="Ellipse 57"
       cx="44"
       cy="37"
       r="3.5"
       fill="url(#paint7_linear_50_7)"
       stroke="#515464"
       style="fill:url(#paint7_linear_50_7);stroke-width:0.990908" />
    <path
       id="Vector 23_2"
       d="m 41.9357,34.543 c -0.5064,0.3214 -0.5434,-0.0744 -0.8846,0.3851 -0.0299,0.0402 -0.0233,0.0969 0.0139,0.1304 l 4.8759,4.3883 c 0.0346,0.0312 0.0864,0.0339 0.125,0.0081 0.4959,-0.3321 0.5316,-0.181 0.8811,-0.6657 0.0302,-0.0419 0.0228,-0.1004 -0.0167,-0.1337 L 42.0588,34.5496 C 42.0241,34.5203 41.974,34.5187 41.9357,34.543 Z"
       fill="#515464"
       style="stroke-width:0.990908" />
    <g
       id="Vector 19_2"
       style="stroke-width:0.990908">
      <mask
         id="path-16-outside-5_50_7"
         maskUnits="userSpaceOnUse"
         x="34"
         y="26"
         width="6"
         height="16"
         fill="#000000">
        <rect
           fill="#ffffff"
           x="34"
           y="26"
           width="6"
           height="16"
           id="rect12" />
        <path
           d="m 35.0341,30.4701 3.8,-3.325 C 38.8988,27.0885 39,27.1345 39,27.2204 v 13.5592 c 0,0.0859 -0.1012,0.1319 -0.1659,0.0753 l -3.8,-3.325 C 35.0124,37.5109 35,37.4835 35,37.4546 v -6.9092 c 0,-0.0289 0.0124,-0.0563 0.0341,-0.0753 z"
           id="path13" />
      </mask>
      <path
         d="m 35.0341,30.4701 3.8,-3.325 C 38.8988,27.0885 39,27.1345 39,27.2204 v 13.5592 c 0,0.0859 -0.1012,0.1319 -0.1659,0.0753 l -3.8,-3.325 C 35.0124,37.5109 35,37.4835 35,37.4546 v -6.9092 c 0,-0.0289 0.0124,-0.0563 0.0341,-0.0753 z"
         fill="url(#paint8_linear_50_7)"
         id="path14"
         style="fill:url(#paint8_linear_50_7);stroke-width:0.990908" />
      <path
         d="m 35.0341,30.4701 3.8,-3.325 C 38.8988,27.0885 39,27.1345 39,27.2204 v 13.5592 c 0,0.0859 -0.1012,0.1319 -0.1659,0.0753 l -3.8,-3.325 C 35.0124,37.5109 35,37.4835 35,37.4546 v -6.9092 c 0,-0.0289 0.0124,-0.0563 0.0341,-0.0753 z"
         stroke="#515464"
         stroke-width="1.98182"
         mask="url(#path-16-outside-5_50_7)"
         id="path15" />
    </g>
    <path
       id="Rectangle 58_2"
       d="M 34.5,31 V 30.5 H 34 33.1 c -0.3314,0 -0.6,0.2686 -0.6,0.6 v 5.8 c 0,0.3314 0.2686,0.6 0.6,0.6 H 34 34.5 V 37 Z"
       fill="url(#paint9_linear_50_7)"
       stroke="#515464"
       style="fill:url(#paint9_linear_50_7);stroke-width:0.990908" />
  </g>
  <g
     id="pause">
    <rect
       id="Rectangle 57_3"
       x="0.5"
       y="-0.5"
       width="4"
       height="12"
       rx="0.6"
       transform="matrix(-1 0 0 1 65 29)"
       fill="url(#paint10_linear_50_7)"
       stroke="#515464" />
    <rect
       id="Rectangle 58_3"
       x="0.5"
       y="-0.5"
       width="4"
       height="12"
       rx="0.6"
       transform="matrix(-1 0 0 1 72 29)"
       fill="url(#paint11_linear_50_7)"
       stroke="#515464" />
  </g>
  <defs
     id="defs62">
    <linearGradient
       id="paint0_linear_50_7"
       x1="63"
       y1="8"
       x2="63"
       y2="17"
       gradientUnits="userSpaceOnUse">
      <stop
         stop-color="white"
         id="stop15" />
      <stop
         offset="0.5349"
         stop-color="#FBFBFB"
         id="stop16" />
      <stop
         offset="0.535"
         stop-color="#E9E9E9"
         id="stop17" />
      <stop
         offset="1"
         stop-color="#DBDBDC"
         id="stop18" />
    </linearGradient>
    <linearGradient
       id="paint1_linear_50_7"
       x1="70"
       y1="8"
       x2="70"
       y2="17"
       gradientUnits="userSpaceOnUse">
      <stop
         stop-color="white"
         id="stop19" />
      <stop
         offset="0.5349"
         stop-color="#FBFBFB"
         id="stop20" />
      <stop
         offset="0.535"
         stop-color="#E9E9E9"
         id="stop21" />
      <stop
         offset="1"
         stop-color="#DBDBDC"
         id="stop22" />
    </linearGradient>
    <linearGradient
       id="paint2_linear_50_7"
       x1="40"
       y1="5"
       x2="40"
       y2="18"
       gradientUnits="userSpaceOnUse">
      <stop
         stop-color="white"
         id="stop23" />
      <stop
         offset="0.5349"
         stop-color="#FBFBFB"
         id="stop24" />
      <stop
         offset="0.535"
         stop-color="#E9E9E9"
         id="stop25" />
      <stop
         offset="1"
         stop-color="#DBDBDC"
         id="stop26" />
    </linearGradient>
    <linearGradient
       id="paint3_linear_50_7"
       x1="16"
       y1="8"
       x2="16"
       y2="17"
       gradientUnits="userSpaceOnUse">
      <stop
         stop-color="white"
         id="stop27" />
      <stop
         offset="0.5349"
         stop-color="#FBFBFB"
         id="stop28" />
      <stop
         offset="0.535"
         stop-color="#E9E9E9"
         id="stop29" />
      <stop
         offset="1"
         stop-color="#DBDBDC"
         id="stop30" />
    </linearGradient>
    <linearGradient
       id="paint4_linear_50_7"
       x1="1"
       y1="0"
       x2="1"
       y2="9"
       gradientUnits="userSpaceOnUse">
      <stop
         stop-color="white"
         id="stop31" />
      <stop
         offset="0.5349"
         stop-color="#FBFBFB"
         id="stop32" />
      <stop
         offset="0.535"
         stop-color="#E9E9E9"
         id="stop33" />
      <stop
         offset="1"
         stop-color="#DBDBDC"
         id="stop34" />
    </linearGradient>
    <linearGradient
       id="paint5_linear_50_7"
       x1="11"
       y1="27"
       x2="11"
       y2="41"
       gradientUnits="userSpaceOnUse">
      <stop
         stop-color="white"
         id="stop35" />
      <stop
         offset="0.5349"
         stop-color="#FBFBFB"
         id="stop36" />
      <stop
         offset="0.535"
         stop-color="#E9E9E9"
         id="stop37" />
      <stop
         offset="1"
         stop-color="#DBDBDC"
         id="stop38" />
    </linearGradient>
    <linearGradient
       id="paint6_linear_50_7"
       x1="7.5"
       y1="31"
       x2="7.5"
       y2="37"
       gradientUnits="userSpaceOnUse">
      <stop
         stop-color="white"
         id="stop39" />
      <stop
         offset="0.5349"
         stop-color="#FBFBFB"
         id="stop40" />
      <stop
         offset="0.535"
         stop-color="#E9E9E9"
         id="stop41" />
      <stop
         offset="1"
         stop-color="#DBDBDC"
         id="stop42" />
    </linearGradient>
    <linearGradient
       id="paint7_linear_50_7"
       x1="44"
       y1="33"
       x2="44"
       y2="41"
       gradientUnits="userSpaceOnUse">
      <stop
         stop-color="white"
         id="stop43" />
      <stop
         offset="0.5349"
         stop-color="#FBFBFB"
         id="stop44" />
      <stop
         offset="0.535"
         stop-color="#E9E9E9"
         id="stop45" />
      <stop
         offset="1"
         stop-color="#DBDBDC"
         id="stop46" />
    </linearGradient>
    <linearGradient
       id="paint8_linear_50_7"
       x1="37"
       y1="27"
       x2="37"
       y2="41"
       gradientUnits="userSpaceOnUse">
      <stop
         stop-color="white"
         id="stop47" />
      <stop
         offset="0.5349"
         stop-color="#FBFBFB"
         id="stop48" />
      <stop
         offset="0.535"
         stop-color="#E9E9E9"
         id="stop49" />
      <stop
         offset="1"
         stop-color="#DBDBDC"
         id="stop50" />
    </linearGradient>
    <linearGradient
       id="paint9_linear_50_7"
       x1="33.5"
       y1="31"
       x2="33.5"
       y2="37"
       gradientUnits="userSpaceOnUse">
      <stop
         stop-color="white"
         id="stop51" />
      <stop
         offset="0.5349"
         stop-color="#FBFBFB"
         id="stop52" />
      <stop
         offset="0.535"
         stop-color="#E9E9E9"
         id="stop53" />
      <stop
         offset="1"
         stop-color="#DBDBDC"
         id="stop54" />
    </linearGradient>
    <linearGradient
       id="paint10_linear_50_7"
       x1="1.5"
       y1="0"
       x2="1.5"
       y2="11"
       gradientUnits="userSpaceOnUse">
      <stop
         stop-color="white"
         id="stop55" />
      <stop
         offset="0.5349"
         stop-color="#FBFBFB"
         id="stop56" />
      <stop
         offset="0.535"
         stop-color="#E9E9E9"
         id="stop57" />
      <stop
         offset="1"
         stop-color="#DBDBDC"
         id="stop58" />
    </linearGradient>
    <linearGradient
       id="paint11_linear_50_7"
       x1="1.5"
       y1="0"
       x2="1.5"
       y2="11"
       gradientUnits="userSpaceOnUse">
      <stop
         stop-color="white"
         id="stop59" />
      <stop
         offset="0.5349"
         stop-color="#FBFBFB"
         id="stop60" />
      <stop
         offset="0.535"
         stop-color="#E9E9E9"
         id="stop61" />
      <stop
         offset="1"
         stop-color="#DBDBDC"
         id="stop62" />
    </linearGradient>
  </defs>
</svg>
