<svg width="32" height="32" viewBox="0 0 32 32" fill="none" xmlns="http://www.w3.org/2000/svg">
<g id="gadget-buttons" clip-path="url(#clip0_0_1)">
<rect width="32" height="32" fill="white"/>
<g id="close-button">
<g id="close-hover-bottom">
<rect id="Rectangle 35" x="4" y="14" width="3" height="1" fill="url(#paint0_linear_0_1)"/>
<rect id="Rectangle 36" x="4" y="13" width="3" height="1" fill="url(#paint1_linear_0_1)"/>
</g>
<g id="close-hover-bottomleft">
<rect id="Rectangle 37" y="14" width="2" height="1" fill="#A36336"/>
<rect id="Rectangle 35_2" x="2" y="14" width="2" height="1" fill="url(#paint2_linear_0_1)"/>
<rect id="Rectangle 38" x="1" y="13" width="1" height="1" fill="#F8C0A9"/>
<rect id="Rectangle 36_2" x="2" y="13" width="2" height="1" fill="url(#paint3_linear_0_1)"/>
<rect id="Rectangle 39" y="13" width="1" height="1" fill="#9D4F30"/>
</g>
<g id="close-hover-bottomright">
<rect id="Rectangle 37_2" width="2" height="1" transform="matrix(-1 0 0 1 11 14)" fill="#A36336"/>
<rect id="Rectangle 38_2" width="1" height="1" transform="matrix(-1 0 0 1 10 13)" fill="#F28450"/>
<rect id="Rectangle 39_2" width="1" height="1" transform="matrix(-1 0 0 1 11 13)" fill="#9D4F30"/>
<rect id="Rectangle 35_3" x="7" y="14" width="2" height="1" fill="url(#paint4_linear_0_1)"/>
<rect id="Rectangle 36_3" x="7" y="13" width="2" height="1" fill="url(#paint5_linear_0_1)"/>
</g>
<g id="close-hover-left">
<rect id="Rectangle 40" x="1" y="4" width="1" height="9" fill="url(#paint6_linear_0_1)"/>
<rect id="Rectangle 42" width="2" height="9" transform="matrix(-1 0 0 1 4 4)" fill="url(#paint7_linear_0_1)"/>
<rect id="Rectangle 41" y="4" width="1" height="9" fill="url(#paint8_linear_0_1)"/>
</g>
<g id="close-hover-right">
<rect id="Rectangle 40_2" width="1" height="9" transform="matrix(-1 0 0 1 10 4)" fill="url(#paint9_linear_0_1)"/>
<rect id="Rectangle 42_2" width="2" height="9" transform="matrix(-1 0 0 1 9 4)" fill="url(#paint10_linear_0_1)"/>
<rect id="Rectangle 41_2" width="1" height="9" transform="matrix(-1 0 0 1 11 4)" fill="url(#paint11_linear_0_1)"/>
</g>
<g id="close-hover-topleft">
<path id="Rectangle 42_3" d="M0 4C0 1.79086 1.79086 0 4 0V4H0Z" fill="#BA4938"/>
<path id="Rectangle 43" d="M1 4C1 2.34315 2.34315 1 4 1V4H1Z" fill="#F9E4E1"/>
<path id="Rectangle 44" d="M2 4C2 2.89543 2.89543 2 4 2V4H2Z" fill="#FE836C"/>
</g>
<g id="close-hover-topright">
<path id="Rectangle 42_4" d="M11 4C11 1.79086 9.20914 0 7 0V4H11Z" fill="#BA4938"/>
<path id="Rectangle 43_2" d="M10 4C10 2.34315 8.65685 1 7 1V4H10Z" fill="url(#paint12_linear_0_1)"/>
<path id="Rectangle 44_2" d="M9 4C9 2.89543 8.10457 2 7 2V4H9Z" fill="#FE836C"/>
</g>
<rect id="close-hover-center" width="3" height="9" transform="matrix(-1 0 0 1 7 4)" fill="url(#paint13_linear_0_1)"/>
<g id="close-hover-top">
<rect id="Rectangle 45" x="4" y="2" width="3" height="2" fill="#FE836C"/>
<rect id="Rectangle 46" x="4" y="1" width="3" height="1" fill="#F9E4E1"/>
<rect id="Rectangle 47" x="4" width="3" height="1" fill="#BA4938"/>
</g>
<g id="close-pressed-bottom">
<rect id="Rectangle 35_4" x="15" y="14" width="3" height="1" fill="url(#paint14_linear_0_1)"/>
<rect id="Rectangle 36_4" x="15" y="13" width="3" height="1" fill="url(#paint15_linear_0_1)"/>
</g>
<g id="close-pressed-bottomleft">
<rect id="Rectangle 37_3" x="11" y="14" width="1" height="1" fill="#563A10"/>
<rect id="Rectangle 40_3" x="12" y="14" width="1" height="1" fill="#5F4410"/>
<rect id="Rectangle 35_5" x="13" y="14" width="2" height="1" fill="url(#paint16_linear_0_1)"/>
<rect id="Rectangle 38_3" x="12" y="13" width="1" height="1" fill="#9D8B73"/>
<rect id="Rectangle 36_5" x="13" y="13" width="2" height="1" fill="url(#paint17_linear_0_1)"/>
<rect id="Rectangle 39_3" x="11" y="13" width="1" height="1" fill="#4E2E10"/>
</g>
<g id="close-pressed-bottomright">
<rect id="Rectangle 38_4" width="1" height="1" transform="matrix(-1 0 0 1 21 13)" fill="#62421B"/>
<rect id="Rectangle 37_4" width="1" height="1" transform="matrix(-1 0 0 1 22 14)" fill="#563A10"/>
<rect id="Rectangle 40_4" width="1" height="1" transform="matrix(-1 0 0 1 21 14)" fill="#5F4410"/>
<rect id="Rectangle 39_4" width="1" height="1" transform="matrix(-1 0 0 1 22 13)" fill="#4E2E10"/>
<rect id="Rectangle 35_6" x="18" y="14" width="2" height="1" fill="url(#paint18_linear_0_1)"/>
<rect id="Rectangle 36_6" x="18" y="13" width="2" height="1" fill="url(#paint19_linear_0_1)"/>
</g>
<g id="close-pressed-left">
<rect id="Rectangle 40_5" x="12" y="4" width="1" height="9" fill="url(#paint20_linear_0_1)"/>
<rect id="Rectangle 42_5" width="2" height="9" transform="matrix(-1 0 0 1 15 4)" fill="url(#paint21_linear_0_1)"/>
<rect id="Rectangle 41_3" x="11" y="4" width="1" height="9" fill="url(#paint22_linear_0_1)"/>
</g>
<g id="close-pressed-right">
<rect id="Rectangle 40_6" width="1" height="9" transform="matrix(-1 0 0 1 21 4)" fill="url(#paint23_linear_0_1)"/>
<rect id="Rectangle 42_6" width="2" height="9" transform="matrix(-1 0 0 1 20 4)" fill="url(#paint24_linear_0_1)"/>
<rect id="Rectangle 41_4" width="1" height="9" transform="matrix(-1 0 0 1 22 4)" fill="url(#paint25_linear_0_1)"/>
</g>
<g id="close-pressed-topleft">
<path id="Rectangle 42_7" d="M11 4C11 1.79086 12.7909 0 15 0V4H11Z" fill="#957359"/>
<path id="Rectangle 43_3" d="M12 4C12 2.34315 13.3431 1 15 1V4H12Z" fill="#E6DED5"/>
<path id="Rectangle 44_3" d="M13 4C13 2.89543 13.8954 2 15 2V4H13Z" fill="#C5AB92"/>
</g>
<g id="close-pressed-topright">
<path id="Rectangle 42_8" d="M22 4C22 1.79086 20.2091 0 18 0V4H22Z" fill="#957359"/>
<path id="Rectangle 43_4" d="M21 4C21 2.34315 19.6569 1 18 1V4H21Z" fill="url(#paint26_linear_0_1)"/>
<path id="Rectangle 44_4" d="M20 4C20 2.89543 19.1046 2 18 2V4H20Z" fill="#C5AB92"/>
</g>
<rect id="close-pressed-center" width="3" height="9" transform="matrix(-1 0 0 1 18 4)" fill="url(#paint27_linear_0_1)"/>
<g id="close-pressed-top">
<rect id="Rectangle 45_2" x="15" y="2" width="3" height="2" fill="#C5AB92"/>
<rect id="Rectangle 46_2" x="15" y="1" width="3" height="1" fill="#E6DED5"/>
<rect id="Rectangle 47_2" x="15" width="3" height="1" fill="#957359"/>
</g>
</g>
<g id="other-button">
<g id="other-hover-bottomleft">
<rect id="Rectangle 48" y="27" width="1" height="1" fill="#16BCD5"/>
<rect id="Rectangle 49" x="1" y="26" width="1" height="1" fill="#8EEBF6"/>
<rect id="Rectangle 50" x="1" y="27" width="1" height="1" fill="#18C6DA"/>
<rect id="Rectangle 51" y="26" width="1" height="1" fill="#20B9D2"/>
</g>
<g id="other-hover-bottomright">
<rect id="Rectangle 48_2" width="1" height="1" transform="matrix(-1 0 0 1 11 27)" fill="#16BCD5"/>
<rect id="Rectangle 49_2" width="1" height="1" transform="matrix(-1 0 0 1 10 26)" fill="#8EEBF6"/>
<rect id="Rectangle 50_2" width="1" height="1" transform="matrix(-1 0 0 1 10 27)" fill="#18C6DA"/>
<rect id="Rectangle 51_2" width="1" height="1" transform="matrix(-1 0 0 1 11 26)" fill="#20B9D2"/>
</g>
<g id="other-hover-topleft">
<rect id="Rectangle 48_3" width="1" height="1" transform="matrix(1 0 0 -1 0 16)" fill="#7BB1D6"/>
<rect id="Rectangle 49_3" width="1" height="1" transform="matrix(1 0 0 -1 1 17)" fill="#B8D9F0"/>
<rect id="Rectangle 50_3" width="1" height="1" transform="matrix(1 0 0 -1 1 16)" fill="#7BB1D6"/>
<rect id="Rectangle 51_3" width="1" height="1" transform="matrix(1 0 0 -1 0 17)" fill="#7BB1D6"/>
</g>
<g id="other-hover-topright">
<rect id="Rectangle 48_4" x="11" y="16" width="1" height="1" transform="rotate(180 11 16)" fill="#7BB1D6"/>
<rect id="Rectangle 49_4" x="10" y="17" width="1" height="1" transform="rotate(180 10 17)" fill="#B8D9F0"/>
<rect id="Rectangle 50_4" x="10" y="16" width="1" height="1" transform="rotate(180 10 16)" fill="#7BB1D6"/>
<path id="Rectangle 51_4" d="M11 17H10V16H11V17Z" fill="#7BB1D6"/>
</g>
<g id="other-hover-bottom">
<rect id="Rectangle 52" x="2" y="26" width="7" height="1" fill="url(#paint28_linear_0_1)"/>
<rect id="Rectangle 53" x="2" y="27" width="7" height="1" fill="url(#paint29_linear_0_1)"/>
</g>
<g id="other-hover-top">
<rect id="Rectangle 52_2" width="7" height="1" transform="matrix(1 0 0 -1 2 17)" fill="#C2E1F6"/>
<rect id="Rectangle 53_2" width="7" height="1" transform="matrix(1 0 0 -1 2 16)" fill="#7BB1D6"/>
</g>
<g id="other-hover-left">
<rect id="Rectangle 54" x="1" y="17" width="1" height="9" fill="url(#paint30_linear_0_1)"/>
<rect id="Rectangle 55" y="17" width="1" height="9" fill="url(#paint31_linear_0_1)"/>
</g>
<g id="other-hover-right">
<rect id="Rectangle 54_2" width="1" height="9" transform="matrix(-1 0 0 1 10 17)" fill="url(#paint32_linear_0_1)"/>
<rect id="Rectangle 55_2" width="1" height="9" transform="matrix(-1 0 0 1 11 17)" fill="url(#paint33_linear_0_1)"/>
</g>
<rect id="other-hover-center" x="2" y="17" width="7" height="9" fill="url(#paint34_linear_0_1)"/>
<g id="other-pressed-bottomleft">
<rect id="Rectangle 48_5" x="11" y="27" width="1" height="1" fill="#137486"/>
<rect id="Rectangle 49_5" x="12" y="26" width="1" height="1" fill="#8FD1D5"/>
<rect id="Rectangle 50_5" x="12" y="27" width="1" height="1" fill="#168791"/>
<rect id="Rectangle 51_5" x="11" y="26" width="1" height="1" fill="#1B778D"/>
</g>
<g id="other-pressed-topleft">
<rect id="Rectangle 48_6" width="1" height="1" transform="matrix(1 0 0 -1 11 16)" fill="#90A7B6"/>
<rect id="Rectangle 49_6" width="1" height="1" transform="matrix(1 0 0 -1 12 17)" fill="#D0DEE6"/>
<rect id="Rectangle 50_6" width="1" height="1" transform="matrix(1 0 0 -1 12 16)" fill="#90A7B6"/>
<rect id="Rectangle 51_6" width="1" height="1" transform="matrix(1 0 0 -1 11 17)" fill="#90A7B6"/>
</g>
<g id="other-pressed-bottom">
<rect id="Rectangle 52_3" x="13" y="26" width="7" height="1" fill="url(#paint35_linear_0_1)"/>
<rect id="Rectangle 53_3" x="13" y="27" width="7" height="1" fill="url(#paint36_linear_0_1)"/>
</g>
<g id="other-pressed-top">
<rect id="Rectangle 52_4" width="7" height="1" transform="matrix(1 0 0 -1 13 17)" fill="#D0DEE6"/>
<rect id="Rectangle 53_4" width="7" height="1" transform="matrix(1 0 0 -1 13 16)" fill="#90A7B6"/>
</g>
<g id="other-pressed-left">
<rect id="Rectangle 54_3" x="12" y="17" width="1" height="9" fill="url(#paint37_linear_0_1)"/>
<rect id="Rectangle 55_3" x="11" y="17" width="1" height="9" fill="url(#paint38_linear_0_1)"/>
</g>
<g id="other-pressed-bottomright">
<rect id="Rectangle 48_7" width="1" height="1" transform="matrix(-1 0 0 1 22 27)" fill="#137486"/>
<rect id="Rectangle 49_7" width="1" height="1" transform="matrix(-1 0 0 1 21 26)" fill="#8FD1D5"/>
<rect id="Rectangle 50_7" width="1" height="1" transform="matrix(-1 0 0 1 21 27)" fill="#168791"/>
<rect id="Rectangle 51_7" width="1" height="1" transform="matrix(-1 0 0 1 22 26)" fill="#1B778D"/>
</g>
<g id="other-pressed-topright">
<rect id="Rectangle 48_8" x="22" y="16" width="1" height="1" transform="rotate(180 22 16)" fill="#90A7B6"/>
<rect id="Rectangle 49_8" x="21" y="17" width="1" height="1" transform="rotate(180 21 17)" fill="#D0DEE6"/>
<rect id="Rectangle 50_8" x="21" y="16" width="1" height="1" transform="rotate(180 21 16)" fill="#90A7B6"/>
<rect id="Rectangle 51_8" x="22" y="17" width="1" height="1" transform="rotate(180 22 17)" fill="#90A7B6"/>
</g>
<g id="other-pressed-right">
<rect id="Rectangle 54_4" width="1" height="9" transform="matrix(-1 0 0 1 21 17)" fill="url(#paint39_linear_0_1)"/>
<rect id="Rectangle 55_4" width="1" height="9" transform="matrix(-1 0 0 1 22 17)" fill="url(#paint40_linear_0_1)"/>
</g>
<rect id="other-pressed-center" x="13" y="17" width="7" height="9" fill="url(#paint41_linear_0_1)"/>
</g>
<g id="button-glyphs">
<g id="close">
<mask id="path-109-outside-1_0_1" maskUnits="userSpaceOnUse" x="23" y="0" width="9" height="8" fill="black">
<rect fill="white" x="23" width="9" height="8"/>
<path d="M25.95 7H24.1C24.0448 7 24 6.95523 24 6.9V6.04806C24 6.01768 24.0138 5.98895 24.0375 5.96998L26.4024 4.07809C26.4524 4.03805 26.4524 3.96195 26.4024 3.92191L24.0375 2.03002C24.0138 2.01105 24 1.98232 24 1.95194V1.1C24 1.04477 24.0448 1 24.1 1H25.95C25.9815 1 26.0111 1.01482 26.03 1.04L27.42 2.89333C27.46 2.94667 27.54 2.94667 27.58 2.89333L28.97 1.04C28.9889 1.01482 29.0185 1 29.05 1H30.9C30.9552 1 31 1.04477 31 1.1V1.95194C31 1.98232 30.9862 2.01105 30.9625 2.03002L28.5976 3.92191C28.5476 3.96195 28.5476 4.03805 28.5976 4.07809L30.9625 5.96998C30.9862 5.98895 31 6.01768 31 6.04806V6.9C31 6.95523 30.9552 7 30.9 7H29.05C29.0185 7 28.9889 6.98518 28.97 6.96L27.58 5.10667C27.54 5.05333 27.46 5.05333 27.42 5.10667L26.03 6.96C26.0111 6.98518 25.9815 7 25.95 7Z"/>
</mask>
<path d="M25.95 7H24.1C24.0448 7 24 6.95523 24 6.9V6.04806C24 6.01768 24.0138 5.98895 24.0375 5.96998L26.4024 4.07809C26.4524 4.03805 26.4524 3.96195 26.4024 3.92191L24.0375 2.03002C24.0138 2.01105 24 1.98232 24 1.95194V1.1C24 1.04477 24.0448 1 24.1 1H25.95C25.9815 1 26.0111 1.01482 26.03 1.04L27.42 2.89333C27.46 2.94667 27.54 2.94667 27.58 2.89333L28.97 1.04C28.9889 1.01482 29.0185 1 29.05 1H30.9C30.9552 1 31 1.04477 31 1.1V1.95194C31 1.98232 30.9862 2.01105 30.9625 2.03002L28.5976 3.92191C28.5476 3.96195 28.5476 4.03805 28.5976 4.07809L30.9625 5.96998C30.9862 5.98895 31 6.01768 31 6.04806V6.9C31 6.95523 30.9552 7 30.9 7H29.05C29.0185 7 28.9889 6.98518 28.97 6.96L27.58 5.10667C27.54 5.05333 27.46 5.05333 27.42 5.10667L26.03 6.96C26.0111 6.98518 25.9815 7 25.95 7Z" fill="white"/>
<path d="M25.95 7H24.1C24.0448 7 24 6.95523 24 6.9V6.04806C24 6.01768 24.0138 5.98895 24.0375 5.96998L26.4024 4.07809C26.4524 4.03805 26.4524 3.96195 26.4024 3.92191L24.0375 2.03002C24.0138 2.01105 24 1.98232 24 1.95194V1.1C24 1.04477 24.0448 1 24.1 1H25.95C25.9815 1 26.0111 1.01482 26.03 1.04L27.42 2.89333C27.46 2.94667 27.54 2.94667 27.58 2.89333L28.97 1.04C28.9889 1.01482 29.0185 1 29.05 1H30.9C30.9552 1 31 1.04477 31 1.1V1.95194C31 1.98232 30.9862 2.01105 30.9625 2.03002L28.5976 3.92191C28.5476 3.96195 28.5476 4.03805 28.5976 4.07809L30.9625 5.96998C30.9862 5.98895 31 6.01768 31 6.04806V6.9C31 6.95523 30.9552 7 30.9 7H29.05C29.0185 7 28.9889 6.98518 28.97 6.96L27.58 5.10667C27.54 5.05333 27.46 5.05333 27.42 5.10667L26.03 6.96C26.0111 6.98518 25.9815 7 25.95 7Z" stroke="black" stroke-width="2" mask="url(#path-109-outside-1_0_1)"/>
</g>
<g id="options">
<mask id="path-110-outside-2_0_1" maskUnits="userSpaceOnUse" x="23" y="9" width="9" height="9" fill="black">
<rect fill="white" x="23" y="9" width="9" height="9"/>
<path d="M29.0863 16.9137L30.9137 15.0863C30.9584 15.0416 30.951 14.9673 30.8985 14.9323L29.536 14.024C29.513 14.0087 29.4974 13.9845 29.4929 13.9573L29.0053 11.0316C29.0018 11.0111 28.9921 10.9921 28.9773 10.9773L28.0293 10.0293C28.0105 10.0105 27.9851 10 27.9586 10H25.7135C25.6287 10 25.5824 10.0989 25.6367 10.164L27.9415 12.9298C27.9746 12.9696 27.972 13.028 27.9354 13.0646L27.0646 13.9354C27.028 13.972 26.9696 13.9746 26.9298 13.9415L24.164 11.6367C24.0989 11.5824 24 11.6287 24 11.7135V13.9586C24 13.9851 24.0105 14.0105 24.0293 14.0293L24.9773 14.9773C24.9921 14.9921 25.0111 15.0018 25.0316 15.0053L27.9573 15.4929C27.9845 15.4974 28.0087 15.513 28.024 15.536L28.9323 16.8985C28.9673 16.951 29.0416 16.9584 29.0863 16.9137Z"/>
</mask>
<path d="M29.0863 16.9137L30.9137 15.0863C30.9584 15.0416 30.951 14.9673 30.8985 14.9323L29.536 14.024C29.513 14.0087 29.4974 13.9845 29.4929 13.9573L29.0053 11.0316C29.0018 11.0111 28.9921 10.9921 28.9773 10.9773L28.0293 10.0293C28.0105 10.0105 27.9851 10 27.9586 10H25.7135C25.6287 10 25.5824 10.0989 25.6367 10.164L27.9415 12.9298C27.9746 12.9696 27.972 13.028 27.9354 13.0646L27.0646 13.9354C27.028 13.972 26.9696 13.9746 26.9298 13.9415L24.164 11.6367C24.0989 11.5824 24 11.6287 24 11.7135V13.9586C24 13.9851 24.0105 14.0105 24.0293 14.0293L24.9773 14.9773C24.9921 14.9921 25.0111 15.0018 25.0316 15.0053L27.9573 15.4929C27.9845 15.4974 28.0087 15.513 28.024 15.536L28.9323 16.8985C28.9673 16.951 29.0416 16.9584 29.0863 16.9137Z" fill="white"/>
<path d="M29.0863 16.9137L30.9137 15.0863C30.9584 15.0416 30.951 14.9673 30.8985 14.9323L29.536 14.024C29.513 14.0087 29.4974 13.9845 29.4929 13.9573L29.0053 11.0316C29.0018 11.0111 28.9921 10.9921 28.9773 10.9773L28.0293 10.0293C28.0105 10.0105 27.9851 10 27.9586 10H25.7135C25.6287 10 25.5824 10.0989 25.6367 10.164L27.9415 12.9298C27.9746 12.9696 27.972 13.028 27.9354 13.0646L27.0646 13.9354C27.028 13.972 26.9696 13.9746 26.9298 13.9415L24.164 11.6367C24.0989 11.5824 24 11.6287 24 11.7135V13.9586C24 13.9851 24.0105 14.0105 24.0293 14.0293L24.9773 14.9773C24.9921 14.9921 25.0111 15.0018 25.0316 15.0053L27.9573 15.4929C27.9845 15.4974 28.0087 15.513 28.024 15.536L28.9323 16.8985C28.9673 16.951 29.0416 16.9584 29.0863 16.9137Z" stroke="black" stroke-width="2" mask="url(#path-110-outside-2_0_1)"/>
</g>
<rect id="Rectangle 56" x="24" y="19" width="7" height="13" fill="black"/>
<g id="drag">
<rect id="Rectangle 18" x="25" y="20" width="2" height="2" fill="white" fill-opacity="0.25"/>
<rect id="Rectangle 19" x="28" y="20" width="2" height="2" fill="white" fill-opacity="0.25"/>
<rect id="Rectangle 20" x="25" y="23" width="2" height="2" fill="white" fill-opacity="0.25"/>
<rect id="Rectangle 21" x="28" y="23" width="2" height="2" fill="white" fill-opacity="0.25"/>
<rect id="Rectangle 22" x="25" y="26" width="2" height="2" fill="white" fill-opacity="0.25"/>
<rect id="Rectangle 23" x="28" y="26" width="2" height="2" fill="white" fill-opacity="0.25"/>
<rect id="Rectangle 24" x="25" y="29" width="2" height="2" fill="white" fill-opacity="0.25"/>
<rect id="Rectangle 25" x="28" y="29" width="2" height="2" fill="white" fill-opacity="0.25"/>
</g>
</g>
</g>
<defs>
<linearGradient id="paint0_linear_0_1" x1="2" y1="14.5" x2="9" y2="14.5" gradientUnits="userSpaceOnUse">
<stop stop-color="#AC7643"/>
<stop offset="0.5" stop-color="#AC823A"/>
<stop offset="1" stop-color="#AC7B41"/>
</linearGradient>
<linearGradient id="paint1_linear_0_1" x1="2" y1="13.5" x2="9" y2="13.5" gradientUnits="userSpaceOnUse">
<stop stop-color="#F7BA99"/>
<stop offset="0.5" stop-color="#F5AB6A"/>
<stop offset="1" stop-color="#F29052"/>
</linearGradient>
<linearGradient id="paint2_linear_0_1" x1="2" y1="14.5" x2="9" y2="14.5" gradientUnits="userSpaceOnUse">
<stop stop-color="#AC7643"/>
<stop offset="0.5" stop-color="#AC823A"/>
<stop offset="1" stop-color="#AC7B41"/>
</linearGradient>
<linearGradient id="paint3_linear_0_1" x1="2" y1="13.5" x2="9" y2="13.5" gradientUnits="userSpaceOnUse">
<stop stop-color="#F7BA99"/>
<stop offset="0.5" stop-color="#F5AB6A"/>
<stop offset="1" stop-color="#F29052"/>
</linearGradient>
<linearGradient id="paint4_linear_0_1" x1="1" y1="14.5" x2="9" y2="14.5" gradientUnits="userSpaceOnUse">
<stop stop-color="#AC7643"/>
<stop offset="0.5" stop-color="#AC823A"/>
<stop offset="1" stop-color="#AC7B41"/>
</linearGradient>
<linearGradient id="paint5_linear_0_1" x1="2" y1="13.5" x2="9" y2="13.5" gradientUnits="userSpaceOnUse">
<stop stop-color="#F7BA99"/>
<stop offset="0.5" stop-color="#F5AB6A"/>
<stop offset="1" stop-color="#F29052"/>
</linearGradient>
<linearGradient id="paint6_linear_0_1" x1="1.5" y1="3" x2="1.5" y2="13" gradientUnits="userSpaceOnUse">
<stop stop-color="#F9E4E1"/>
<stop offset="0.5" stop-color="#FDD8D4"/>
<stop offset="0.5001" stop-color="#F7C0BA"/>
<stop offset="1" stop-color="#F6B7A9"/>
</linearGradient>
<linearGradient id="paint7_linear_0_1" x1="1" y1="-1" x2="1" y2="9" gradientUnits="userSpaceOnUse">
<stop stop-color="#FE836C"/>
<stop offset="0.5" stop-color="#F88779"/>
<stop offset="0.5001" stop-color="#E24C39"/>
<stop offset="1" stop-color="#EB622F"/>
</linearGradient>
<linearGradient id="paint8_linear_0_1" x1="0.5" y1="3" x2="0.5" y2="13" gradientUnits="userSpaceOnUse">
<stop stop-color="#AD4D41"/>
<stop offset="0.4999" stop-color="#A03D32"/>
<stop offset="0.5" stop-color="#931304"/>
<stop offset="1" stop-color="#993A24"/>
</linearGradient>
<linearGradient id="paint9_linear_0_1" x1="0.5" y1="-1" x2="0.5" y2="9" gradientUnits="userSpaceOnUse">
<stop stop-color="#DE8C83"/>
<stop offset="0.5" stop-color="#F88779"/>
<stop offset="0.5001" stop-color="#E24C39"/>
<stop offset="1" stop-color="#ED6946"/>
</linearGradient>
<linearGradient id="paint10_linear_0_1" x1="1" y1="-1" x2="1" y2="9" gradientUnits="userSpaceOnUse">
<stop stop-color="#FE836C"/>
<stop offset="0.5" stop-color="#F88779"/>
<stop offset="0.5001" stop-color="#E24C39"/>
<stop offset="1" stop-color="#EB622F"/>
</linearGradient>
<linearGradient id="paint11_linear_0_1" x1="0.5" y1="-1" x2="0.5" y2="9" gradientUnits="userSpaceOnUse">
<stop stop-color="#AD4D41"/>
<stop offset="0.4999" stop-color="#A03D32"/>
<stop offset="0.5" stop-color="#931304"/>
<stop offset="1" stop-color="#993A24"/>
</linearGradient>
<linearGradient id="paint12_linear_0_1" x1="7" y1="1" x2="10" y2="4" gradientUnits="userSpaceOnUse">
<stop stop-color="#F9E4E1"/>
<stop offset="1" stop-color="#E78A80"/>
</linearGradient>
<linearGradient id="paint13_linear_0_1" x1="1.5" y1="-1" x2="1.5" y2="9" gradientUnits="userSpaceOnUse">
<stop stop-color="#FE836C"/>
<stop offset="0.5" stop-color="#F88779"/>
<stop offset="0.5001" stop-color="#E24C39"/>
<stop offset="1" stop-color="#EB622F"/>
</linearGradient>
<linearGradient id="paint14_linear_0_1" x1="13" y1="14.5" x2="20" y2="14.5" gradientUnits="userSpaceOnUse">
<stop stop-color="#7A6029"/>
<stop offset="0.5" stop-color="#8A6F37"/>
<stop offset="1" stop-color="#7C6029"/>
</linearGradient>
<linearGradient id="paint15_linear_0_1" x1="13" y1="13.5" x2="20" y2="13.5" gradientUnits="userSpaceOnUse">
<stop stop-color="#9D8869"/>
<stop offset="0.5" stop-color="#937851"/>
<stop offset="1" stop-color="#735326"/>
</linearGradient>
<linearGradient id="paint16_linear_0_1" x1="11.6667" y1="14.5" x2="16.3333" y2="14.5" gradientUnits="userSpaceOnUse">
<stop stop-color="#7A6029"/>
<stop offset="0.5" stop-color="#8A6F37"/>
<stop offset="1" stop-color="#7C6029"/>
</linearGradient>
<linearGradient id="paint17_linear_0_1" x1="13" y1="13.5" x2="20" y2="13.5" gradientUnits="userSpaceOnUse">
<stop stop-color="#9D8869"/>
<stop offset="0.5" stop-color="#937851"/>
<stop offset="1" stop-color="#735326"/>
</linearGradient>
<linearGradient id="paint18_linear_0_1" x1="16.6667" y1="14.5" x2="21.3333" y2="14.5" gradientUnits="userSpaceOnUse">
<stop stop-color="#7A6029"/>
<stop offset="0.5" stop-color="#8A6F37"/>
<stop offset="1" stop-color="#7C6029"/>
</linearGradient>
<linearGradient id="paint19_linear_0_1" x1="13" y1="13.5" x2="20" y2="13.5" gradientUnits="userSpaceOnUse">
<stop stop-color="#9D8869"/>
<stop offset="0.5" stop-color="#937851"/>
<stop offset="1" stop-color="#735326"/>
</linearGradient>
<linearGradient id="paint20_linear_0_1" x1="12.5" y1="3" x2="12.5" y2="13" gradientUnits="userSpaceOnUse">
<stop stop-color="#E6DED5"/>
<stop offset="0.5" stop-color="#C9B7AB"/>
<stop offset="0.5001" stop-color="#AA9691"/>
<stop offset="1" stop-color="#9D877A"/>
</linearGradient>
<linearGradient id="paint21_linear_0_1" x1="1" y1="-1" x2="1" y2="9" gradientUnits="userSpaceOnUse">
<stop stop-color="#C5AB92"/>
<stop offset="0.5" stop-color="#967058"/>
<stop offset="0.5001" stop-color="#5D342B"/>
<stop offset="1" stop-color="#5D320C"/>
</linearGradient>
<linearGradient id="paint22_linear_0_1" x1="11.5" y1="3" x2="11.5" y2="13" gradientUnits="userSpaceOnUse">
<stop stop-color="#8C6A59"/>
<stop offset="0.4999" stop-color="#704427"/>
<stop offset="0.5" stop-color="#2F0C01"/>
<stop offset="1" stop-color="#431C0D"/>
</linearGradient>
<linearGradient id="paint23_linear_0_1" x1="0.5" y1="-1" x2="0.5" y2="9" gradientUnits="userSpaceOnUse">
<stop stop-color="#C5AB92"/>
<stop offset="0.5" stop-color="#967058"/>
<stop offset="0.5001" stop-color="#5D342B"/>
<stop offset="1" stop-color="#62421B"/>
</linearGradient>
<linearGradient id="paint24_linear_0_1" x1="1" y1="-1" x2="1" y2="9" gradientUnits="userSpaceOnUse">
<stop stop-color="#C5AB92"/>
<stop offset="0.5" stop-color="#967058"/>
<stop offset="0.5001" stop-color="#5D342B"/>
<stop offset="1" stop-color="#5D320C"/>
</linearGradient>
<linearGradient id="paint25_linear_0_1" x1="0.5" y1="-1" x2="0.5" y2="9" gradientUnits="userSpaceOnUse">
<stop stop-color="#8C6A59"/>
<stop offset="0.4999" stop-color="#704427"/>
<stop offset="0.5" stop-color="#2F0C01"/>
<stop offset="1" stop-color="#431C0D"/>
</linearGradient>
<linearGradient id="paint26_linear_0_1" x1="18" y1="1" x2="21" y2="4" gradientUnits="userSpaceOnUse">
<stop stop-color="#E6DED5"/>
<stop offset="1" stop-color="#C5AB92"/>
</linearGradient>
<linearGradient id="paint27_linear_0_1" x1="1.5" y1="-1" x2="1.5" y2="9" gradientUnits="userSpaceOnUse">
<stop stop-color="#C5AB92"/>
<stop offset="0.5" stop-color="#967058"/>
<stop offset="0.5001" stop-color="#5D342B"/>
<stop offset="1" stop-color="#5D320C"/>
</linearGradient>
<linearGradient id="paint28_linear_0_1" x1="2" y1="26.5" x2="9" y2="26.5" gradientUnits="userSpaceOnUse">
<stop stop-color="#8FF0F8"/>
<stop offset="0.5" stop-color="#8FF9FC"/>
<stop offset="1" stop-color="#8FF0F8"/>
</linearGradient>
<linearGradient id="paint29_linear_0_1" x1="2" y1="27.5" x2="9" y2="27.5" gradientUnits="userSpaceOnUse">
<stop stop-color="#30D5E3"/>
<stop offset="0.5" stop-color="#2FE4E7"/>
<stop offset="1" stop-color="#2FD5E2"/>
</linearGradient>
<linearGradient id="paint30_linear_0_1" x1="1.5" y1="17" x2="1.5" y2="26" gradientUnits="userSpaceOnUse">
<stop stop-color="#B8D9F0"/>
<stop offset="0.56" stop-color="#9EE0F0"/>
<stop offset="0.56" stop-color="#89D9E8"/>
<stop offset="1" stop-color="#8EEBF6"/>
</linearGradient>
<linearGradient id="paint31_linear_0_1" x1="0.5" y1="17" x2="0.5" y2="26" gradientUnits="userSpaceOnUse">
<stop stop-color="#68A3CA"/>
<stop offset="0.56" stop-color="#3DA8C7"/>
<stop offset="0.56" stop-color="#058CAB"/>
<stop offset="1" stop-color="#16BCD5"/>
</linearGradient>
<linearGradient id="paint32_linear_0_1" x1="0.5" y1="0" x2="0.5" y2="9" gradientUnits="userSpaceOnUse">
<stop stop-color="#B8D9F0"/>
<stop offset="0.56" stop-color="#9EE0F0"/>
<stop offset="0.56" stop-color="#89D9E8"/>
<stop offset="1" stop-color="#8EEBF6"/>
</linearGradient>
<linearGradient id="paint33_linear_0_1" x1="0.5" y1="0" x2="0.5" y2="9" gradientUnits="userSpaceOnUse">
<stop stop-color="#68A3CA"/>
<stop offset="0.56" stop-color="#3DA8C7"/>
<stop offset="0.56" stop-color="#058CAB"/>
<stop offset="1" stop-color="#16BCD5"/>
</linearGradient>
<linearGradient id="paint34_linear_0_1" x1="5.5" y1="17" x2="5.5" y2="26" gradientUnits="userSpaceOnUse">
<stop stop-color="#7CBBE6"/>
<stop offset="0.56" stop-color="#49D0EA"/>
<stop offset="0.56" stop-color="#2BCCDC"/>
<stop offset="1" stop-color="#16E5EE"/>
</linearGradient>
<linearGradient id="paint35_linear_0_1" x1="13" y1="26.5" x2="20" y2="26.5" gradientUnits="userSpaceOnUse">
<stop stop-color="#8FD1D5"/>
<stop offset="0.5" stop-color="#8FDDDD"/>
<stop offset="1" stop-color="#8ED1D5"/>
</linearGradient>
<linearGradient id="paint36_linear_0_1" x1="13" y1="27.5" x2="20" y2="27.5" gradientUnits="userSpaceOnUse">
<stop stop-color="#17959A"/>
<stop offset="0.5" stop-color="#18AEA9"/>
<stop offset="1" stop-color="#17959A"/>
</linearGradient>
<linearGradient id="paint37_linear_0_1" x1="12.5" y1="17" x2="12.5" y2="26" gradientUnits="userSpaceOnUse">
<stop stop-color="#D0DEE6"/>
<stop offset="0.56" stop-color="#9AC7D1"/>
<stop offset="0.56" stop-color="#80ACB8"/>
<stop offset="1" stop-color="#8EC9D2"/>
</linearGradient>
<linearGradient id="paint38_linear_0_1" x1="11.5" y1="17" x2="11.5" y2="26" gradientUnits="userSpaceOnUse">
<stop stop-color="#90A7B6"/>
<stop offset="0.56" stop-color="#30788E"/>
<stop offset="0.56" stop-color="#024156"/>
<stop offset="1" stop-color="#137486"/>
</linearGradient>
<linearGradient id="paint39_linear_0_1" x1="0.5" y1="0" x2="0.5" y2="9" gradientUnits="userSpaceOnUse">
<stop stop-color="#D0DEE6"/>
<stop offset="0.56" stop-color="#9AC7D1"/>
<stop offset="0.56" stop-color="#80ACB8"/>
<stop offset="1" stop-color="#8EC9D2"/>
</linearGradient>
<linearGradient id="paint40_linear_0_1" x1="0.5" y1="0" x2="0.5" y2="9" gradientUnits="userSpaceOnUse">
<stop stop-color="#90A7B6"/>
<stop offset="0.56" stop-color="#30788E"/>
<stop offset="0.56" stop-color="#024156"/>
<stop offset="1" stop-color="#137486"/>
</linearGradient>
<linearGradient id="paint41_linear_0_1" x1="16.5" y1="17" x2="16.5" y2="26" gradientUnits="userSpaceOnUse">
<stop stop-color="#A5BFCE"/>
<stop offset="0.56" stop-color="#96BFC8"/>
<stop offset="0.56" stop-color="#8AACB4"/>
<stop offset="1" stop-color="#1BA1A9"/>
</linearGradient>
<clipPath id="clip0_0_1">
<rect width="32" height="32" fill="white"/>
</clipPath>
</defs>
</svg>
